<?xml version="1.0" encoding="utf-8"?>
<?xml-stylesheet type="text/xsl" href="rss1.xsl"?>
<rss version="2.0" xmlns:atom="http://www.w3.org/2005/Atom" xmlns:content="http://purl.org/rss/1.0/modules/content/" xmlns:dc="http://purl.org/dc/elements/1.1/" xmlns:media="http://search.yahoo.com/mrss/">
<channel>
 <title>Getty</title>
 <link>http://www.gettyimg.com/</link>
 <atom:link href="http://www.gettyimg.com/" rel="self" type="application/rss+xml" />

 
                <item>
                <title><![CDATA[【HD Live Performances】HDTV - An Audience with Kylie HDTV H264 1080i DD2.0-ilya2129]]></title>
                <link><![CDATA[https://sharemania.us/threads/an-audience-with-kylie-hdtv-h264-1080i-dd2-0-ilya2129.233765/]]></link>
                <description><![CDATA[<article>
<blockquote class="messageText SelectQuoteContainer ugc baseHtml">
<div style="text-align: center"><img src="https://i122.fastpic.org/big/2023/1211/25/fd747fe7684f9cdf3a386e0eed2b1125.png" class="bbCodeImage LbImage" alt="[​IMG]" data-url="https://i122.fastpic.org/big/2023/1211/25/fd747fe7684f9cdf3a386e0eed2b1125.png" style=""><br>
<br>
<a href="https://postimg.cc/Z92jLvpr" target="_blank" class="externalLink" rel="nofollow"><img src="https://i.postimg.cc/Z92jLvpr/vlcsnap-2023-12-11-00h28m57s148.png" class="bbCodeImage LbImage" alt="[​IMG]" data-url="https://i.postimg.cc/Z92jLvpr/vlcsnap-2023-12-11-00h28m57s148.png"></a> <a href="https://postimg.cc/tnH5K0rJ" target="_blank" class="externalLink" rel="nofollow"><img src="https://i.postimg.cc/tnH5K0rJ/vlcsnap-2023-12-11-00h29m00s207.png" class="bbCodeImage LbImage" alt="[​IMG]" data-url="https://i.postimg.cc/tnH5K0rJ/vlcsnap-2023-12-11-00h29m00s207.png"></a> <a href="https://postimg.cc/JGMxKLDd" target="_blank" class="externalLink" rel="nofollow"><img src="https://i.postimg.cc/JGMxKLDd/vlcsnap-2023-12-11-00h29m02s130.png" class="bbCodeImage LbImage" alt="[​IMG]" data-url="https://i.postimg.cc/JGMxKLDd/vlcsnap-2023-12-11-00h29m02s130.png"></a> <a href="https://postimg.cc/4Hb5Z8M5" target="_blank" class="externalLink" rel="nofollow"><img src="https://i.postimg.cc/4Hb5Z8M5/vlcsnap-2023-12-11-00h29m04s450.png" class="bbCodeImage LbImage" alt="[​IMG]" data-url="https://i.postimg.cc/4Hb5Z8M5/vlcsnap-2023-12-11-00h29m04s450.png"></a> <a href="https://postimg.cc/MXytyTTQ" target="_blank" class="externalLink" rel="nofollow"><img src="https://i.postimg.cc/MXytyTTQ/vlcsnap-2023-12-11-00h29m06s665.png" class="bbCodeImage LbImage" alt="[​IMG]" data-url="https://i.postimg.cc/MXytyTTQ/vlcsnap-2023-12-11-00h29m06s665.png"></a> <a href="https://postimg.cc/dkC6NQjg" target="_blank" class="externalLink" rel="nofollow"><img src="https://i.postimg.cc/dkC6NQjg/vlcsnap-2023-12-11-00h29m08s403.png" class="bbCodeImage LbImage" alt="[​IMG]" data-url="https://i.postimg.cc/dkC6NQjg/vlcsnap-2023-12-11-00h29m08s403.png"></a><br>
<br>
Tension<br>
Spinning Around<br>
All the Lovers<br>
Hold On To Now<br>
I Should Be So Lucky<br>
Come into My World<br>
The Loco-Motion<br>
Padam Padam<br>
Can't Get You Out Of My Head<br>
​</div><br>
<div class="bbCodeBlock bbCodeCode">
<div class="type">Code:</div>
<pre>General
ID                                       : 1 (0x1)
Complete name                            : D:\An Audience with Kylie HDTV H264 1080i DD2.0-ilya2129.ts
Format                                   : MPEG-TS
File size                                : 2.69 GiB
Duration                                 : 56 min 51 s
Overall bit rate mode                    : Variable
Overall bit rate                         : 6 761 kb/s
Frame rate                               : 25.000 FPS

Video
ID                                       : 302 (0x12E)
Menu ID                                  : 1 (0x1)
Format                                   : AVC
Format/Info                              : Advanced Video Codec
Format profile                           : Main@L4
Format settings                          : CABAC / 4 Ref Frames
Format settings, CABAC                   : Yes
Format settings, Reference frames        : 4 frames
Codec ID                                 : 27
Duration                                 : 56 min 51 s
Bit rate                                 : 6 233 kb/s
Width                                    : 1 920 pixels
Height                                   : 1 080 pixels
Display aspect ratio                     : 16:9
Frame rate                               : 25.000 FPS
Color space                              : YUV
Chroma subsampling                       : 4:2:0
Bit depth                                : 8 bits
Scan type                                : MBAFF
Bits/(Pixel*Frame)                       : 0.120
Time code of first frame                 : 19:44:06:0000000024
Stream size                              : 2.48 GiB (92%)
Color range                              : Limited

Audio
ID                                       : 303 (0x12F)
Menu ID                                  : 1 (0x1)
Format                                   : AC-3
Format/Info                              : Audio Coding 3
Commercial name                          : Dolby Digital
Codec ID                                 : 6
Duration                                 : 56 min 51 s
Bit rate mode                            : Constant
Bit rate                                 : 192 kb/s
Channel(s)                               : 2 channels
Channel layout                           : L R
Sampling rate                            : 48.0 kHz
Frame rate                               : 31.250 FPS (1536 SPF)
Compression mode                         : Lossy
Stream size                              : 78.1 MiB (3%)
Language                                 : English
Service kind                             : Complete Main



</pre>
</div><div style="text-align: center">
<div class="bbCodeBlock bbCodeVfcHH HiddenContent">
<div class="attribution type">Hidden Content:</div>
<blockquote>You must reply before you can see the hidden data contained here.</blockquote>
</div></div>
<div class="messageTextEndMarker">&nbsp;</div>
</blockquote>
</article>]]></description>
                <author><![CDATA[ilya2129]]></author>
                </item>

                
                <item>
                <title><![CDATA[【HD Live Performances】FEED - Lana Del Rey - Unchained Melody - Christmas at Graceland (2023) 1080i HDTV Backhaul MPA2.0 H.264-TrollHD]]></title>
                <link><![CDATA[https://sharemania.us/threads/lana-del-rey-unchained-melody-christmas-at-graceland-2023-1080i-hdtv-backhaul-mpa2-0-h-264-trollhd.233766/]]></link>
                <description><![CDATA[<article>
<blockquote class="messageText SelectQuoteContainer ugc baseHtml">
Thanks
<div class="messageTextEndMarker">&nbsp;</div>
</blockquote>
</article>]]></description>
                <author><![CDATA[Dream66]]></author>
                </item>

                
                <item>
                <title><![CDATA[【Requests】[REQ AUD] - ANJEL Unreleased Album]]></title>
                <link><![CDATA[https://sharemania.us/threads/anjel-unreleased-album.233767/]]></link>
                <description><![CDATA[<article>
<blockquote class="messageText SelectQuoteContainer ugc baseHtml">
Omg thank you! Just saw her vegas residency this weekend - cant wait to watch this!!!!!
<div class="messageTextEndMarker">&nbsp;</div>
</blockquote>
</article>]]></description>
                <author><![CDATA[zz10]]></author>
                </item>

                </channel></rss>